# xmcd
#
# Track frame offsets: 
#        150
#        7560
#        22658
#        46036
#        57484
#        75121
#        88499
#        100975
#        114511
#        122916
#
# Disc length: 2034 seconds
#
# Revision: 1
# Processed by: cddbd v1.5.2PL0 Copyright (c) Steve Scherf et al.
# Submitted via: ExactAudioCopyFreeDBPlugin 1.0
#
DISCID=6707f00a
DTITLE=Bullfrog Brown - Moon and Central
DYEAR=2009
DGENRE=Blues
TTITLE0=Hurtin´ Street
TTITLE1=Leave you sleepin´
TTITLE2=Road
TTITLE3=Shadows
TTITLE4=Scent of a woman
TTITLE5=Paint your shadow on the wall
TTITLE6=Whiskers
TTITLE7=Two left feet
TTITLE8=Years past midnight
TTITLE9=Blues for brekfast (live)
EXTD=YEAR: 2009
EXTT0=
EXTT1=
EXTT2=
EXTT3=
EXTT4=
EXTT5=
EXTT6=
EXTT7=
EXTT8=
EXTT9=
PLAYORDER=
